<?xml version="1.0" standalone="no"?>
<!DOCTYPE svg PUBLIC "-//W3C//DTD SVG 20010904//EN"
 "http://www.w3.org/TR/2001/REC-SVG-20010904/DTD/svg10.dtd">
<svg version="1.0" xmlns="http://www.w3.org/2000/svg"
 width="256.000000pt" height="256.000000pt" viewBox="0 0 256.000000 256.000000"
 preserveAspectRatio="xMidYMid meet">

<g transform="translate(0.000000,256.000000) scale(0.100000,-0.100000)"
fill="#000000" stroke="none">
<path d="M1092 2445 c-639 -116 -1067 -747 -937 -1380 46 -224 144 -410 299
-573 174 -182 374 -293 616 -342 91 -19 127 -21 270 -17 137 4 181 9 259 31
386 108 686 390 811 764 224 669 -211 1396 -908 1517 -103 18 -310 18 -410 0z
m-163 -533 c74 -37 100 -120 61 -189 -27 -50 -66 -73 -120 -73 -84 0 -140 56
-140 141 0 52 23 89 74 120 39 24 81 24 125 1z m867 -380 c54 -28 118 -101
140 -160 15 -40 19 -90 22 -334 l3 -288 -130 0 -131 0 0 220 c0 252 -9 311
-52 352 -25 23 -39 28 -83 28 -43 0 -60 -5 -84 -26 -55 -46 -56 -51 -61 -319
l-5 -250 -130 0 -130 0 2 390 3 390 127 0 128 0 3 -47 3 -47 30 34 c16 18 53
46 82 60 47 24 61 26 137 23 61 -3 96 -10 126 -26z m-791 -387 l0 -390 -130 0
-130 0 -3 380 c-1 209 0 386 3 393 3 9 36 12 132 10 l128 -3 0 -390z"/>
</g>
</svg>
