<?xml version="1.0" standalone="no"?>
<!DOCTYPE svg PUBLIC "-//W3C//DTD SVG 20010904//EN"
 "http://www.w3.org/TR/2001/REC-SVG-20010904/DTD/svg10.dtd">
<svg version="1.0" xmlns="http://www.w3.org/2000/svg"
 width="256.000000pt" height="256.000000pt" viewBox="0 0 256.000000 256.000000"
 preserveAspectRatio="xMidYMid meet">

<g transform="translate(0.000000,256.000000) scale(0.100000,-0.100000)"
fill="#000000" stroke="none">
<path d="M466 2550 c-39 -12 -85 -57 -107 -105 -18 -38 -19 -91 -19 -1165 0
-1074 1 -1127 19 -1165 23 -49 65 -88 110 -104 44 -14 1569 -16 1621 -1 20 5
50 24 67 42 67 69 63 -8 63 1228 0 1236 4 1159 -63 1228 -17 18 -47 37 -67 42
-44 12 -1583 12 -1624 0z m1589 -70 c22 -5 50 -21 63 -35 l22 -26 0 -1139 0
-1139 -23 -26 c-12 -14 -40 -30 -62 -35 -53 -12 -1497 -12 -1550 0 -22 5 -50
21 -62 35 l-23 26 0 1139 0 1139 23 26 c12 15 38 30 57 35 49 11 1506 12 1555
0z"/>
<path d="M756 2309 c-26 -30 -26 -32 -26 -205 0 -185 5 -209 53 -261 16 -18
17 -23 6 -27 -8 -2 -33 -9 -57 -15 -53 -15 -119 -73 -143 -126 -23 -50 -25
-154 -4 -195 8 -16 29 -39 47 -52 32 -22 39 -23 290 -26 239 -3 261 -2 302 17
63 27 86 68 86 150 0 110 -67 206 -162 232 -24 6 -49 13 -56 15 -10 3 -7 13
12 34 38 46 48 93 43 200 -3 52 -5 100 -5 105 0 6 1 48 1 95 l2 85 -181 3
-182 2 -26 -31z m322 -71 l-3 -33 -137 -3 -138 -3 0 29 c0 16 3 32 7 35 3 4
67 7 140 7 l134 0 -3 -32z m0 -196 c5 -124 -44 -192 -140 -192 -93 0 -138 60
-138 182 0 41 3 78 7 82 4 3 66 5 137 4 l131 -3 3 -73z m-108 -292 c-12 -22
-40 -26 -58 -8 -21 21 -13 28 28 28 38 0 40 -2 30 -20z m-88 -80 c18 -11 44
-20 58 -20 36 0 85 33 99 68 12 29 14 29 54 20 62 -14 103 -44 126 -92 27 -54
27 -106 0 -140 l-20 -26 -257 0 c-249 0 -256 1 -279 22 -29 27 -30 86 -4 145
22 48 54 72 119 88 47 12 47 12 59 -16 6 -16 27 -38 45 -49z"/>
<path d="M1693 2332 c-253 -2 -262 -3 -268 -23 -15 -46 0 -49 275 -49 142 0
265 3 274 6 22 8 20 51 -1 61 -10 4 -136 7 -280 5z"/>
<path d="M1425 2160 c-14 -44 7 -50 170 -50 163 0 184 6 170 50 -6 19 -14 20
-170 20 -156 0 -164 -1 -170 -20z"/>
<path d="M1432 1618 c-18 -18 -14 -46 7 -58 29 -15 523 -14 539 2 17 17 15 55
-4 62 -9 3 -131 6 -273 6 -187 0 -260 -3 -269 -12z"/>
<path d="M1432 1468 c-18 -18 -14 -46 7 -58 29 -15 523 -14 539 2 17 17 15 55
-4 62 -9 3 -131 6 -273 6 -187 0 -260 -3 -269 -12z"/>
<path d="M609 1224 c-17 -21 0 -49 31 -49 31 0 48 28 31 49 -8 9 -21 16 -31
16 -10 0 -23 -7 -31 -16z"/>
<path d="M809 1224 c-9 -11 -10 -20 -2 -32 9 -16 60 -17 594 -17 l584 0 0 30
0 30 -581 3 c-522 2 -583 1 -595 -14z"/>
<path d="M616 1004 c-9 -8 -16 -19 -16 -24 0 -11 29 -40 40 -40 5 0 16 7 24
16 9 8 16 19 16 24 0 5 -7 16 -16 24 -8 9 -19 16 -24 16 -5 0 -16 -7 -24 -16z"/>
<path d="M818 1009 c-24 -13 -23 -46 1 -59 14 -7 207 -9 587 -8 527 3 568 4
578 21 8 12 8 22 0 35 -10 16 -51 17 -580 19 -374 2 -575 -1 -586 -8z"/>
<path d="M609 774 c-17 -21 0 -49 31 -49 31 0 48 28 31 49 -8 9 -21 16 -31 16
-10 0 -23 -7 -31 -16z"/>
<path d="M809 774 c-9 -11 -10 -20 -2 -32 9 -16 60 -17 594 -17 l584 0 0 30 0
30 -581 3 c-522 2 -583 1 -595 -14z"/>
<path d="M616 554 c-9 -8 -16 -19 -16 -24 0 -11 29 -40 40 -40 11 0 40 29 40
40 0 11 -29 40 -40 40 -5 0 -16 -7 -24 -16z"/>
<path d="M818 559 c-24 -13 -23 -46 1 -59 14 -7 207 -9 587 -8 527 3 568 4
578 21 8 12 8 22 0 35 -10 16 -51 17 -580 19 -374 2 -575 -1 -586 -8z"/>
<path d="M609 324 c-17 -21 0 -49 31 -49 31 0 48 28 31 49 -8 9 -21 16 -31 16
-10 0 -23 -7 -31 -16z"/>
<path d="M809 324 c-9 -11 -10 -20 -2 -32 9 -16 60 -17 594 -17 l584 0 0 30 0
30 -581 3 c-522 2 -583 1 -595 -14z"/>
</g>
</svg>
