<?xml version="1.0" standalone="no"?>
<!DOCTYPE svg PUBLIC "-//W3C//DTD SVG 20010904//EN"
 "http://www.w3.org/TR/2001/REC-SVG-20010904/DTD/svg10.dtd">
<svg version="1.0" xmlns="http://www.w3.org/2000/svg"
 width="512.000000pt" height="512.000000pt" viewBox="0 0 512.000000 512.000000"
 preserveAspectRatio="xMidYMid meet">

<g transform="translate(0.000000,512.000000) scale(0.100000,-0.100000)"
fill="#000000" stroke="none">
<path d="M970 5104 c-159 -42 -289 -185 -319 -348 -15 -84 -15 -4308 0 -4392
30 -166 161 -307 324 -349 52 -13 242 -15 1585 -15 992 0 1540 4 1569 11 127
29 242 122 302 244 l34 70 3 1682 2 1683 -442 0 c-348 0 -456 3 -503 15 -183
43 -332 162 -416 330 -63 127 -68 176 -69 663 l0 422 -1007 -1 c-854 0 -1016
-3 -1063 -15z m1035 -728 c79 -36 140 -88 185 -158 168 -259 11 -603 -297
-650 -273 -43 -522 210 -475 483 28 164 135 289 288 340 86 28 219 22 299 -15z
m-26 -991 c211 -50 390 -236 436 -451 18 -85 19 -230 2 -264 -17 -33 -60 -53
-98 -45 -50 11 -63 45 -69 176 -6 109 -8 122 -43 192 -62 126 -165 202 -308
228 -121 22 -254 -20 -347 -109 -92 -88 -132 -191 -132 -343 0 -71 -3 -91 -20
-112 -42 -53 -124 -40 -150 23 -17 40 -7 213 16 290 61 206 226 366 429 416
70 17 208 17 284 -1z m956 -1359 c51 -22 68 -67 44 -119 -6 -14 -22 -30 -36
-36 -17 -8 -261 -11 -833 -11 l-809 0 -27 24 c-51 43 -26 136 40 149 11 2 373
5 804 6 654 1 788 -1 817 -13z m910 -971 c35 -34 34 -93 -1 -126 l-26 -24
-1259 0 -1259 0 -27 27 c-38 38 -37 92 1 124 l27 24 1260 0 1260 0 24 -25z"/>
<path d="M1760 4225 c-207 -65 -229 -355 -35 -458 56 -30 164 -30 220 0 90 48
135 123 135 225 0 110 -68 202 -174 233 -60 18 -87 18 -146 0z"/>
<path d="M3220 4625 c0 -302 3 -382 15 -430 32 -124 123 -231 245 -289 l65
-31 310 -3 c171 -2 349 -2 398 0 l87 3 -560 560 -560 560 0 -370z"/>
</g>
</svg>
