<?xml version="1.0" standalone="no"?>
<!DOCTYPE svg PUBLIC "-//W3C//DTD SVG 20010904//EN"
 "http://www.w3.org/TR/2001/REC-SVG-20010904/DTD/svg10.dtd">
<svg version="1.0" xmlns="http://www.w3.org/2000/svg"
 width="600.000000pt" height="600.000000pt" viewBox="0 0 600.000000 600.000000"
 preserveAspectRatio="xMidYMid meet">

<g transform="translate(0.000000,600.000000) scale(0.100000,-0.100000)"
fill="#000000" stroke="none">
<path d="M1912 5980 c-102 -27 -165 -64 -248 -145 -121 -119 -161 -222 -171
-442 l-6 -143 -306 0 c-338 0 -396 -7 -497 -58 -132 -67 -240 -188 -286 -320
-22 -64 -23 -80 -23 -357 l0 -290 29 -62 c34 -74 123 -164 191 -194 25 -11 67
-23 95 -26 l49 -6 3 -1651 3 -1651 23 -79 c74 -263 273 -462 532 -533 61 -17
164 -18 1695 -18 l1630 0 78 23 c101 29 179 69 256 130 124 100 205 217 257
372 18 52 19 132 24 1730 l5 1675 54 7 c29 5 73 17 98 28 67 29 156 120 189
193 l29 62 0 295 0 295 -27 68 c-54 135 -154 245 -282 309 -101 51 -159 58
-503 58 l-313 0 0 143 c0 157 -10 208 -62 312 -41 81 -155 192 -239 234 -126
62 -104 61 -1204 60 -952 0 -1003 -1 -1073 -19z m2095 -371 c83 -31 112 -96
113 -246 l0 -113 -1126 0 -1126 0 3 129 c4 127 5 130 35 168 63 79 -20 73
1086 73 675 0 996 -3 1015 -11z m1148 -762 c22 -13 49 -40 62 -62 22 -38 23
-50 23 -257 l0 -218 -2246 0 -2245 0 3 228 c3 219 4 228 26 260 13 18 40 41
60 52 36 19 79 19 2157 19 l2120 1 40 -23z m-285 -2526 c0 -1557 -1 -1622 -19
-1680 -31 -101 -97 -177 -201 -232 l-45 -24 -1610 0 -1610 0 -54 28 c-70 37
-142 112 -178 184 l-28 58 -3 1643 -2 1642 1875 0 1875 0 0 -1619z"/>
<path d="M1592 3539 c-29 -15 -51 -36 -70 -68 l-27 -46 0 -1260 c0 -693 3
-1272 8 -1288 12 -42 74 -105 115 -117 47 -13 456 -13 501 0 39 11 86 51 107
92 12 23 14 224 14 1304 l0 1277 -25 43 c-16 28 -39 49 -68 63 -40 19 -60 21
-278 21 -218 0 -237 -1 -277 -21z m468 -1384 l0 -1215 -190 0 -190 0 0 1215 0
1215 190 0 190 0 0 -1215z"/>
<path d="M2725 3544 c-45 -23 -66 -45 -86 -89 -18 -38 -19 -99 -19 -1298 0
-1109 2 -1262 15 -1294 21 -50 42 -72 90 -94 35 -16 68 -19 270 -19 202 0 235
3 270 19 48 22 69 44 90 94 13 32 15 185 15 1292 0 1107 -2 1260 -15 1292 -20
48 -41 71 -87 94 -33 17 -61 19 -275 19 -196 0 -243 -3 -268 -16z m455 -1389
l0 -1215 -185 0 -185 0 0 1215 0 1215 185 0 185 0 0 -1215z"/>
<path d="M3842 3539 c-29 -15 -51 -36 -70 -68 l-27 -46 0 -1270 c0 -1416 -6
-1297 69 -1363 46 -41 77 -44 343 -40 l221 3 39 31 c79 63 73 -55 73 1373 l0
1274 -25 43 c-16 28 -39 49 -68 63 -40 19 -60 21 -278 21 -218 0 -237 -1 -277
-21z m468 -1384 l0 -1215 -190 0 -190 0 0 1215 0 1215 190 0 190 0 0 -1215z"/>
</g>
</svg>
